<?xml version="1.0" standalone="no"?>
<!DOCTYPE svg PUBLIC "-//W3C//DTD SVG 20010904//EN"
 "http://www.w3.org/TR/2001/REC-SVG-20010904/DTD/svg10.dtd">
<svg version="1.0" xmlns="http://www.w3.org/2000/svg"
 width="800.000000pt" height="600.000000pt" viewBox="0 0 800.000000 600.000000"
 preserveAspectRatio="xMidYMid meet">
<metadata>
Created by potrace 1.15, written by Peter Selinger 2001-2017
</metadata>
<g transform="translate(0.000000,600.000000) scale(0.100000,-0.100000)"
fill="#000000" stroke="none">
<path d="M1814 3542 l-1031 -1227 1033 -3 c569 -1 1499 -1 2068 0 l1034 3
-1029 1225 c-567 674 -1033 1226 -1037 1227 -4 2 -471 -550 -1038 -1225z
m2051 -5 c553 -660 1005 -1201 1002 -1203 -2 -2 -912 -3 -2022 -2 l-2018 3
1009 1202 c555 661 1012 1201 1015 1200 4 -1 460 -541 1014 -1200z"/>
</g>
</svg>
